<?xml version="1.0" encoding="UTF-8"?>
<svg version="1.1" xmlns="http://www.w3.org/2000/svg" width="512" height="512">
<path d="M0 0 C0.73132141 -0.00974854 1.46264282 -0.01949707 2.21612549 -0.02954102 C18.6183093 -0.2030219 34.34252634 0.02044676 50.3125 4.23828125 C51.03727539 4.42551758 51.76205078 4.61275391 52.50878906 4.80566406 C86.53582001 13.86389437 116.93989797 34.31664337 138.3125 62.23828125 C138.92222656 63.03234375 139.53195312 63.82640625 140.16015625 64.64453125 C164.23773326 97.55238138 173.24172949 138.32034967 167.75341797 178.48779297 C163.46489432 205.24001191 152.00094833 231.59169651 134.3125 252.23828125 C134.84617187 252.45484375 135.37984375 252.67140625 135.9296875 252.89453125 C139.1804039 254.72772214 141.74091416 257.1928947 144.4375 259.73828125 C145.01008545 260.27437012 145.5826709 260.81045898 146.17260742 261.36279297 C147.892884 262.98077766 149.60436561 264.60749062 151.3125 266.23828125 C152.69501953 267.55699219 152.69501953 267.55699219 154.10546875 268.90234375 C188.10149041 302.10776026 207.05570273 349.35641316 207.66186523 396.52368164 C207.77533916 410.93044227 207.59057365 425.14227002 204.3125 439.23828125 C204.01448486 440.53813965 204.01448486 440.53813965 203.71044922 441.86425781 C199.59868722 459.25377709 193.41394076 475.60477007 185.25 491.48828125 C184.86295898 492.25035889 184.47591797 493.01243652 184.07714844 493.79760742 C179.64760942 502.11634062 174.52335439 509.0487634 165.3125 512.23828125 C161.08312338 512.80645888 156.89790304 512.77851737 152.63549805 512.74621582 C151.36840594 512.75245578 150.10131384 512.75869575 148.795825 512.7651248 C145.29471122 512.78176702 141.7940356 512.77359542 138.29292059 512.76117992 C134.51097544 512.75211065 130.72910439 512.76610844 126.94717407 512.77709961 C119.54468078 512.79486945 112.14234989 512.79105173 104.73985028 512.77944905 C98.72274269 512.77040894 92.70568055 512.76919322 86.68856812 512.77354431 C85.83159983 512.77415724 84.97463155 512.77477018 84.09169453 512.77540168 C82.35068264 512.77668061 80.60967076 512.77797746 78.8686589 512.77929205 C62.55002144 512.79069335 46.23147392 512.77759121 29.91285121 512.75609058 C15.91613963 512.73822 1.91956075 512.74132424 -12.07714844 512.75976562 C-28.33810072 512.78118029 -44.59897421 512.78959475 -60.85993862 512.77731657 C-62.59448177 512.7760424 -64.32902494 512.77478491 -66.06356812 512.77354431 C-66.9169567 512.77292721 -67.77034528 512.77231011 -68.64959413 512.77167431 C-74.65823054 512.7682232 -80.6668169 512.7740446 -86.67544556 512.78346252 C-93.99977066 512.79469052 -101.32392433 512.79162569 -108.64822984 512.77033955 C-112.38396402 512.75983982 -116.11941255 512.75568868 -119.8551445 512.76893616 C-123.90717682 512.78308778 -127.95849028 512.76617047 -132.01049805 512.74621582 C-133.18793233 512.75513871 -134.36536661 512.76406159 -135.57848072 512.77325487 C-143.34810884 512.69895951 -148.69078306 511.59539361 -154.79125977 506.47119141 C-159.19211859 501.22284849 -162.51490022 495.70720608 -165.625 489.61328125 C-166.14006104 488.60982666 -166.65512207 487.60637207 -167.18579102 486.57250977 C-180.49691857 460.02712553 -187.14926457 431.3311046 -187 401.67578125 C-186.99751251 400.88392426 -186.99502502 400.09206726 -186.99246216 399.2762146 C-186.85965498 371.87757576 -181.73572617 345.83085952 -169.58251953 321.078125 C-168.80056743 319.47070791 -168.06602092 317.84040368 -167.33984375 316.20703125 C-156.49778462 292.59985663 -136.88130795 267.64186732 -115.6875 252.23828125 C-115.0275 252.23828125 -114.3675 252.23828125 -113.6875 252.23828125 C-114.36554688 251.36429688 -115.04359375 250.4903125 -115.7421875 249.58984375 C-141.29672974 216.07379405 -152.56832678 176.31015883 -147.4375 134.3359375 C-141.94051271 94.38241334 -120.74490561 57.78574959 -88.92675781 32.85888672 C-66.42826836 15.91580277 -41.31815969 5.88121341 -13.6875 1.23828125 C-12.7682373 1.06321045 -11.84897461 0.88813965 -10.90185547 0.70776367 C-7.25833682 0.17559852 -3.6741151 0.04052055 0 0 Z " fill="#F0F1F1" transform="translate(245.6875,-0.23828125)"/>
<path d="M0 0 C1.17162186 -0.0049926 1.17162186 -0.0049926 2.36691284 -0.01008606 C4.00908828 -0.01512492 5.65127387 -0.01749533 7.29345703 -0.01733398 C9.80388088 -0.01953054 12.31387189 -0.03774554 14.82421875 -0.05664062 C16.42447767 -0.05957319 18.02473867 -0.0615589 19.625 -0.0625 C20.37298859 -0.06968552 21.12097717 -0.07687103 21.89163208 -0.08427429 C25.64474224 -0.06780406 28.49524949 0.07081112 31.6796875 2.16796875 C31.09292236 2.27753906 30.50615723 2.38710938 29.90161133 2.5 C-4.40873122 9.05497079 -34.50551571 23.2954823 -59.3203125 48.16796875 C-60.25230469 49.08835938 -61.18429688 50.00875 -62.14453125 50.95703125 C-90.81423634 80.64919372 -103.14854705 120.52359681 -102.73304749 161.10916138 C-102.19220399 190.67337724 -91.36165467 219.22288455 -74.3203125 243.16796875 C-73.78792969 243.92464844 -73.25554687 244.68132812 -72.70703125 245.4609375 C-71.58950149 247.03807105 -70.45720792 248.60473754 -69.3203125 250.16796875 C-70.65074006 253.15869866 -72.06064512 255.11088562 -74.48046875 257.3046875 C-75.10469727 257.87703125 -75.72892578 258.449375 -76.37207031 259.0390625 C-77.3673877 259.93818359 -77.3673877 259.93818359 -78.3828125 260.85546875 C-79.75475149 262.11887443 -81.12584883 263.38319469 -82.49609375 264.6484375 C-83.15818848 265.2573584 -83.8202832 265.8662793 -84.50244141 266.49365234 C-116.63004717 296.0841869 -138.6916476 341.35248395 -141.3203125 385.16796875 C-142.81312049 424.23835726 -137.16078815 474.77407669 -109.3203125 505.16796875 C-105.31239154 509.17588971 -101.73984292 510.06569138 -96.3203125 511.16796875 C-96.3203125 511.49796875 -96.3203125 511.82796875 -96.3203125 512.16796875 C-103.15205086 512.26976618 -109.98359209 512.33960066 -116.81591797 512.38769531 C-119.13793243 512.40775452 -121.45989673 512.43500866 -123.78173828 512.46972656 C-127.12805595 512.51849416 -130.47370309 512.54099518 -133.8203125 512.55859375 C-134.8508374 512.57923889 -135.8813623 512.59988403 -136.94311523 512.62115479 C-144.42462925 512.62346029 -149.65278919 511.24856916 -155.42407227 506.40087891 C-159.82493109 501.15253599 -163.14771272 495.63689358 -166.2578125 489.54296875 C-166.77287354 488.53951416 -167.28793457 487.53605957 -167.81860352 486.50219727 C-181.12973107 459.95681303 -187.78207707 431.2607921 -187.6328125 401.60546875 C-187.63032501 400.81361176 -187.62783752 400.02175476 -187.62527466 399.2059021 C-187.49246748 371.80726326 -182.36853867 345.76054702 -170.21533203 321.0078125 C-169.43337993 319.40039541 -168.69883342 317.77009118 -167.97265625 316.13671875 C-157.13059712 292.52954413 -137.51412045 267.57155482 -116.3203125 252.16796875 C-115.6603125 252.16796875 -115.0003125 252.16796875 -114.3203125 252.16796875 C-114.99835938 251.29398438 -115.67640625 250.42 -116.375 249.51953125 C-141.92954224 216.00348155 -153.20113928 176.23984633 -148.0703125 134.265625 C-142.57332521 94.31210084 -121.37771811 57.71543709 -89.55957031 32.78857422 C-67.06108086 15.84549027 -41.95097219 5.81090091 -14.3203125 1.16796875 C-13.41410156 0.99144775 -12.50789062 0.81492676 -11.57421875 0.63305664 C-7.70599024 0.08016233 -3.8984689 0.00583153 0 0 Z " fill="#DFE0E0" transform="translate(246.3203125,-0.16796875)"/>
<path d="M0 0 C6.5222378 3.6557766 11.4254506 8.83082894 13.75 16 C14.70091524 23.29772164 13.90357064 29.83363462 9.75 36 C4.11806619 42.27942294 -2.02070302 46.03212067 -10.5625 46.5 C-17.62898606 46.26735848 -23.15828396 43.83979844 -28.359375 39.0625 C-34.16520527 32.72886697 -35.74359283 27.56370824 -35.5546875 19 C-34.89548282 12.50936933 -32.14021669 8.57061458 -27.4375 4.1875 C-19.1196039 -2.50962958 -9.92568088 -4.47184405 0 0 Z " fill="#EF6C3B" transform="translate(269.25,159)"/>
<path d="M0 0 C6.34732399 3.69181089 11.29040741 9.30872222 13.625 16.3125 C14.61691131 24.03523806 13.02140007 29.90568582 8.625 36.3125 C4.13914124 41.36169917 -0.33946938 43.9471903 -7.13671875 44.5625 C-14.83098828 44.87142927 -20.37618281 43.99890959 -26.125 38.69921875 C-31.95093625 32.3831196 -32.90342209 25.93253232 -32.75 17.50390625 C-31.90840753 10.34160368 -27.53818539 6.03047257 -22.21875 1.5390625 C-15.62942758 -2.84451216 -7.1670858 -3.35914648 0 0 Z " fill="#656254" transform="translate(267.375,272.6875)"/>
<path d="M0 0 C5.90724494 3.23886327 9.85129381 7.65648542 13.3125 13.375 C14.94021923 20.97102305 14.22073408 26.91108535 10.43359375 33.734375 C6.94361573 38.80752601 2.74382674 42.11147422 -3.125 44 C-10.39675673 44.82534873 -17.38838134 45.17974175 -23.44140625 40.63671875 C-29.35694986 34.88587705 -32.28644198 30.13805259 -32.5 21.875 C-32.54535838 14.23483525 -30.93355929 9.96550541 -25.703125 4.51953125 C-18.07244492 -2.47525883 -9.31604122 -4.1844434 0 0 Z " fill="#646154" transform="translate(267.125,358)"/>
<path d="M0 0 C3.5677811 2.35149209 5.84221079 4.99692157 7.75 8.8125 C8.15331428 14.05558569 7.61051133 17.37377553 4.75 21.8125 C1.07297423 25.21374883 -1.53622563 26.65082317 -6.5625 27.125 C-11.97513018 26.66630253 -14.63452173 24.21541534 -18.625 20.75 C-21.1315158 16.21899067 -21.00431825 11.87176581 -20.25 6.8125 C-15.76888538 -1.15392599 -8.28804185 -3.02832298 0 0 Z " fill="#656355" transform="translate(314.25,137.1875)"/>
<path d="M0 0 C4.3219532 1.68745583 7.57006469 4.01405349 10 8 C10.89343272 12.52257029 11.02849442 17.06643049 8.828125 21.203125 C6.08555131 24.56772571 3.36061841 27.18872216 -1 28 C-5.71689476 28.13151194 -9.63729188 27.70261268 -13.4375 24.75 C-16.95298939 20.97727968 -17.82070908 18.64350006 -18.375 13.5625 C-17.78934795 7.99880552 -15.40684189 5.21499981 -11.25 1.625 C-7.3621312 -0.3189344 -4.22395192 -0.81543473 0 0 Z " fill="#656255" transform="translate(208,136)"/>
</svg>
