<?xml version="1.0" standalone="no"?>
<!DOCTYPE svg PUBLIC "-//W3C//DTD SVG 20010904//EN"
 "http://www.w3.org/TR/2001/REC-SVG-20010904/DTD/svg10.dtd">
<svg version="1.0" xmlns="http://www.w3.org/2000/svg"
 width="512.000000pt" height="512.000000pt" viewBox="0 0 512.000000 512.000000"
 preserveAspectRatio="xMidYMid meet">

<g transform="translate(0.000000,512.000000) scale(0.100000,-0.100000)"
fill="#000000" stroke="none">
<path d="M1290 5105 c-272 -61 -476 -252 -549 -515 -26 -93 -29 -247 -7 -342
33 -142 173 -547 415 -1197 83 -223 151 -408 151 -412 0 -3 -28 -26 -62 -49
-167 -116 -318 -263 -411 -402 -29 -43 -55 -77 -60 -78 -4 0 -120 57 -258 126
-138 69 -252 124 -254 122 -12 -13 -155 -311 -151 -315 2 -2 120 -63 263 -135
142 -71 260 -131 261 -133 2 -2 -3 -38 -12 -80 -9 -43 -16 -119 -16 -171 l0
-94 -270 0 -270 0 0 -180 0 -180 306 0 305 0 25 -57 c188 -425 654 -782 1211
-928 424 -111 882 -111 1306 0 544 143 999 485 1197 901 l41 84 304 0 305 0 0
180 0 180 -270 0 -270 0 0 94 c0 52 -7 128 -16 171 -9 42 -14 78 -12 80 1 2
119 62 261 133 143 72 261 133 263 135 4 4 -139 302 -151 315 -2 2 -116 -53
-254 -122 -138 -69 -254 -126 -258 -126 -5 1 -31 35 -60 78 -93 139 -244 286
-410 402 -35 23 -63 46 -63 49 0 4 68 189 151 412 241 650 382 1055 415 1197
21 92 19 239 -5 335 -113 438 -608 664 -1008 459 -179 -92 -303 -237 -362
-422 -34 -108 -70 -403 -141 -1145 -22 -231 -42 -440 -45 -465 l-6 -45 -130 7
c-71 4 -187 4 -258 0 l-130 -7 -6 45 c-3 25 -25 254 -50 510 -90 944 -111
1078 -186 1220 -89 168 -259 304 -444 355 -85 23 -245 28 -325 10z m363 -1169
c40 -16 81 -64 96 -108 15 -49 37 -227 71 -573 16 -170 32 -324 34 -342 4 -31
4 -32 -69 -56 l-74 -25 -9 26 c-6 15 -57 156 -115 313 -127 345 -197 560 -197
602 0 38 30 105 56 129 54 48 141 62 207 34z m2002 -20 c41 -32 74 -95 75
-143 0 -42 -70 -257 -197 -602 -58 -157 -109 -298 -115 -313 l-9 -26 -74 25
c-73 24 -73 25 -69 56 2 18 18 172 34 342 34 346 56 524 71 573 14 43 56 91
94 108 18 9 54 13 91 11 49 -2 69 -8 99 -31z m-1647 -1985 c104 -74 92 -245
-21 -300 -122 -59 -257 22 -257 155 0 63 33 121 85 152 53 31 145 28 193 -7z
m1297 6 c117 -66 112 -248 -8 -306 -121 -59 -257 22 -257 153 0 74 46 145 110
169 38 14 116 6 155 -16z m-590 -593 c245 -83 269 -306 45 -408 -155 -71 -383
-44 -488 57 -145 139 -42 322 208 371 46 9 185 -3 235 -20z"/>
</g>
</svg>
