<svg width="35" height="35" viewBox="0 0 35 35" fill="none" xmlns="http://www.w3.org/2000/svg">
<path d="M18.375 3.20866C18.1226 3.01933 17.8155 2.91699 17.5 2.91699C17.1845 2.91699 16.8774 3.01933 16.625 3.20866C16.0175 3.67413 15.4572 4.19825 14.9523 4.77345C14.1896 5.63241 13.125 7.08053 13.125 8.75033C13.125 9.91065 13.5859 11.0234 14.4064 11.8439C15.2269 12.6644 16.3397 13.1253 17.5 13.1253H8.75C7.58968 13.1253 6.47688 13.5863 5.65641 14.4067C4.83594 15.2272 4.375 16.34 4.375 17.5003V20.417C4.375 22.2195 6.43271 23.2491 7.875 22.167L8.84771 21.4378C9.10014 21.2485 9.40717 21.1462 9.72271 21.1462C10.0382 21.1462 10.3453 21.2485 10.5977 21.4378L10.9856 21.7295C11.7429 22.2975 12.664 22.6045 13.6106 22.6045C14.5572 22.6045 15.4783 22.2975 16.2356 21.7295L16.625 21.4378C16.8774 21.2485 17.1845 21.1462 17.5 21.1462C17.8155 21.1462 18.1226 21.2485 18.375 21.4378L18.7644 21.7295C19.5217 22.2975 20.4428 22.6045 21.3894 22.6045C22.336 22.6045 23.2571 22.2975 24.0144 21.7295L24.4023 21.4378C24.6547 21.2485 24.9618 21.1462 25.2773 21.1462C25.5928 21.1462 25.8999 21.2485 26.1523 21.4378L27.125 22.167C28.5673 23.2491 30.625 22.2195 30.625 20.417V17.5003C30.625 16.34 30.1641 15.2272 29.3436 14.4067C28.5231 13.5863 27.4103 13.1253 26.25 13.1253H17.5C18.6603 13.1253 19.7731 12.6644 20.5936 11.8439C21.4141 11.0234 21.875 9.91065 21.875 8.75033C21.875 7.08053 20.8104 5.63241 20.0477 4.77345C19.5431 4.2047 18.9831 3.66512 18.375 3.20866ZM5.83333 25.3972V29.167C5.83333 29.9405 6.14062 30.6824 6.68761 31.2294C7.23459 31.7764 7.97645 32.0837 8.75 32.0837H26.25C27.0235 32.0837 27.7654 31.7764 28.3124 31.2294C28.8594 30.6824 29.1667 29.9405 29.1667 29.167V25.3972C28.8273 25.5198 28.4626 25.5553 28.1059 25.5005C27.7492 25.4458 27.412 25.3024 27.125 25.0837L26.1523 24.3545C25.8999 24.1652 25.5928 24.0628 25.2773 24.0628C24.9618 24.0628 24.6547 24.1652 24.4023 24.3545L24.0144 24.6462C23.2571 25.2141 22.336 25.5212 21.3894 25.5212C20.4428 25.5212 19.5217 25.2141 18.7644 24.6462L18.375 24.3545C18.1226 24.1652 17.8155 24.0628 17.5 24.0628C17.1845 24.0628 16.8774 24.1652 16.625 24.3545L16.2356 24.6462C15.4783 25.2141 14.5572 25.5212 13.6106 25.5212C12.664 25.5212 11.7429 25.2141 10.9856 24.6462L10.5977 24.3545C10.3453 24.1652 10.0382 24.0628 9.72271 24.0628C9.40717 24.0628 9.10014 24.1652 8.84771 24.3545L7.875 25.0837C7.58803 25.3024 7.25078 25.4458 6.89411 25.5005C6.53744 25.5553 6.17273 25.5198 5.83333 25.3972Z" fill="#2B2A2A"/>
</svg>
