<svg width="35" height="35" viewBox="0 0 35 35" fill="none" xmlns="http://www.w3.org/2000/svg">
<path fill-rule="evenodd" clip-rule="evenodd" d="M25.8832 16.5681C25.8628 11.8905 25.69 8.40656 25.5245 6.10969C25.444 4.91744 24.9399 3.79325 24.1032 2.94004C23.2666 2.08682 22.1525 1.56078 20.9621 1.45688C18.9933 1.27458 16.3268 1.09375 13.4896 1.09375C10.6677 1.09375 8.01354 1.2724 6.04844 1.45396C4.85031 1.56062 3.7297 2.0918 2.88862 2.95173C2.04755 3.81166 1.54134 4.94376 1.46125 6.14396C1.28333 8.63771 1.09375 12.4717 1.09375 17.5C1.09375 24.2455 1.26438 29.2053 1.36208 31.4832C1.39032 32.1364 1.67003 32.7533 2.14271 33.2049C2.61538 33.6565 3.24439 33.9078 3.89813 33.9062H30.4741C31.3149 33.9086 32.1239 33.5851 32.7311 33.0035C33.3383 32.422 33.6966 31.6277 33.7305 30.7876C33.8085 28.8189 33.9062 25.6594 33.9062 22.2396C33.9062 19.6102 33.791 17.2426 33.6671 15.454C33.4921 12.934 31.5292 10.9346 28.9931 10.7581C28.6655 10.7358 28.3194 10.7139 27.9548 10.6925C28.0248 12.6124 28.0729 14.8808 28.0729 17.5C28.0729 22.6115 27.9818 26.5796 27.8943 29.2031C27.8847 29.4885 27.7639 29.7588 27.5576 29.9563C27.3514 30.1538 27.0761 30.2628 26.7906 30.2601C26.505 30.2573 26.2319 30.143 26.0295 29.9415C25.8271 29.7401 25.7116 29.4675 25.7075 29.182C25.8321 25.2893 25.8914 21.3947 25.8854 17.5C25.8854 17.184 25.8847 16.8734 25.8832 16.5681ZM9.47917 7.29167C9.86594 7.29167 10.2369 7.44531 10.5104 7.7188C10.7839 7.99229 10.9375 8.36323 10.9375 8.75V10.2083C10.9375 10.5951 10.7839 10.966 10.5104 11.2395C10.2369 11.513 9.86594 11.6667 9.47917 11.6667C9.09239 11.6667 8.72146 11.513 8.44797 11.2395C8.17448 10.966 8.02083 10.5951 8.02083 10.2083V8.75C8.02083 8.36323 8.17448 7.99229 8.44797 7.7188C8.72146 7.44531 9.09239 7.29167 9.47917 7.29167ZM10.9375 16.7708C10.9375 16.3841 10.7839 16.0131 10.5104 15.7396C10.2369 15.4661 9.86594 15.3125 9.47917 15.3125C9.09239 15.3125 8.72146 15.4661 8.44797 15.7396C8.17448 16.0131 8.02083 16.3841 8.02083 16.7708V18.2292C8.02083 18.6159 8.17448 18.9869 8.44797 19.2604C8.72146 19.5339 9.09239 19.6875 9.47917 19.6875C9.86594 19.6875 10.2369 19.5339 10.5104 19.2604C10.7839 18.9869 10.9375 18.6159 10.9375 18.2292V16.7708ZM17.5 7.29167C17.8868 7.29167 18.2577 7.44531 18.5312 7.7188C18.8047 7.99229 18.9583 8.36323 18.9583 8.75V10.2083C18.9583 10.5951 18.8047 10.966 18.5312 11.2395C18.2577 11.513 17.8868 11.6667 17.5 11.6667C17.1132 11.6667 16.7423 11.513 16.4688 11.2395C16.1953 10.966 16.0417 10.5951 16.0417 10.2083V8.75C16.0417 8.36323 16.1953 7.99229 16.4688 7.7188C16.7423 7.44531 17.1132 7.29167 17.5 7.29167ZM18.9583 16.7708C18.9583 16.3841 18.8047 16.0131 18.5312 15.7396C18.2577 15.4661 17.8868 15.3125 17.5 15.3125C17.1132 15.3125 16.7423 15.4661 16.4688 15.7396C16.1953 16.0131 16.0417 16.3841 16.0417 16.7708V18.2292C16.0417 18.6159 16.1953 18.9869 16.4688 19.2604C16.7423 19.5339 17.1132 19.6875 17.5 19.6875C17.8868 19.6875 18.2577 19.5339 18.5312 19.2604C18.8047 18.9869 18.9583 18.6159 18.9583 18.2292V16.7708ZM13.8542 22.9688C13.0689 22.9688 12.4396 23.0161 11.9401 23.0854C10.6378 23.2648 9.94875 24.3797 9.90135 25.5828C9.85921 26.777 9.84001 27.9718 9.84375 29.1667C9.84375 30.022 9.85104 30.7475 9.86198 31.3615C9.86389 31.4569 9.90314 31.5478 9.97131 31.6146C10.0395 31.6814 10.1311 31.7188 10.2266 31.7188H17.4818C17.5772 31.7188 17.6689 31.6814 17.737 31.6146C17.8052 31.5478 17.8444 31.4569 17.8464 31.3615C17.8573 30.7475 17.8646 30.022 17.8646 29.1667C17.8646 27.5457 17.8391 26.3915 17.807 25.5828C17.7596 24.3797 17.0705 23.2648 15.7682 23.0854C15.1337 23.0024 14.4941 22.9634 13.8542 22.9688Z" fill="#2B2A2A"/>
</svg>
