<svg width="35" height="35" viewBox="0 0 35 35" fill="none" xmlns="http://www.w3.org/2000/svg">
<path d="M18.6919 3.97051C18.0192 3.34707 16.9802 3.34707 16.313 3.97051L4.06298 15.3455C3.53798 15.8377 3.36298 16.5979 3.62548 17.265C3.88798 17.9322 4.52783 18.3752 5.2497 18.3752H6.1247V28.0002C6.1247 29.9307 7.69423 31.5002 9.6247 31.5002H25.3747C27.3052 31.5002 28.8747 29.9307 28.8747 28.0002V18.3752H29.7497C30.4716 18.3752 31.1169 17.9322 31.3794 17.265C31.6419 16.5979 31.4669 15.8322 30.9419 15.3455L18.6919 3.97051ZM16.6247 21.0002H18.3747C19.8239 21.0002 20.9997 22.176 20.9997 23.6252V28.8752H13.9997V23.6252C13.9997 22.176 15.1755 21.0002 16.6247 21.0002Z" fill="#2B2A2A"/>
</svg>
