<svg width="25" height="25" viewBox="0 0 25 25" fill="none" xmlns="http://www.w3.org/2000/svg">
<path d="M7.40104 23.2157C5.9309 22.5809 4.64725 21.715 3.55008 20.6178C2.45292 19.5206 1.58694 18.2366 0.952167 16.7656C0.317389 15.2947 0 13.7291 0 12.0688C0 10.4086 0.317389 8.84782 0.952167 7.38654C1.58694 5.92527 2.45292 4.64645 3.55008 3.55009C4.64725 2.45372 5.9309 1.58775 7.40104 0.952168C8.87118 0.316585 10.4372 -0.000804026 12.099 1.52954e-06C13.7609 0.000807085 15.3217 0.318196 16.7813 0.952168C18.241 1.58614 19.5198 2.45211 20.6178 3.55009C21.7158 4.64806 22.5817 5.92688 23.2157 7.38654C23.8497 8.84621 24.1667 10.407 24.1667 12.0688C24.1667 13.7307 23.8497 15.2963 23.2157 16.7656C22.5817 18.235 21.7158 19.519 20.6178 20.6178C19.5198 21.7166 18.241 22.5825 16.7813 23.2157C15.3217 23.8489 13.7609 24.1659 12.099 24.1667C10.4372 24.1675 8.87118 23.8505 7.40104 23.2157ZM12.0833 21.6896C12.6069 20.9646 13.0601 20.2094 13.4427 19.424C13.8253 18.6385 14.1375 17.8028 14.3792 16.9167H9.7875C10.0292 17.8028 10.3413 18.6385 10.724 19.424C11.1066 20.2094 11.5597 20.9646 12.0833 21.6896ZM8.94167 21.2063C8.57917 20.5417 8.26218 19.8517 7.99071 19.1364C7.71924 18.421 7.49247 17.6811 7.31042 16.9167H3.74583C4.32986 17.9236 5.0601 18.7997 5.93654 19.5448C6.81299 20.2899 7.81469 20.8438 8.94167 21.2063ZM15.225 21.2063C16.3528 20.8438 17.3549 20.2899 18.2313 19.5448C19.1078 18.7997 19.8376 17.9236 20.4208 16.9167H16.8563C16.675 17.6819 16.4486 18.4223 16.1772 19.1376C15.9057 19.8529 15.5883 20.5425 15.225 21.2063ZM2.71875 14.5H6.82708C6.76667 14.0972 6.72156 13.6997 6.69175 13.3074C6.66194 12.9151 6.64664 12.5071 6.64583 12.0833C6.64503 11.6596 6.66033 11.252 6.69175 10.8605C6.72317 10.469 6.76828 10.0711 6.82708 9.66667H2.71875C2.61806 10.0694 2.54274 10.4674 2.49279 10.8605C2.44285 11.2536 2.41747 11.6612 2.41667 12.0833C2.41586 12.5054 2.44124 12.9135 2.49279 13.3074C2.54435 13.7013 2.61967 14.0988 2.71875 14.5ZM9.24375 14.5H14.9229C14.9833 14.0972 15.0288 13.6997 15.0595 13.3074C15.0901 12.9151 15.105 12.5071 15.1042 12.0833C15.1034 11.6596 15.0881 11.252 15.0583 10.8605C15.0284 10.469 14.9833 10.0711 14.9229 9.66667H9.24375C9.18333 10.0694 9.13822 10.4674 9.10842 10.8605C9.07861 11.2536 9.06331 11.6612 9.0625 12.0833C9.0617 12.5054 9.077 12.9135 9.10842 13.3074C9.13983 13.7013 9.18494 14.0988 9.24375 14.5ZM17.3396 14.5H21.4479C21.5486 14.0972 21.6243 13.6997 21.6751 13.3074C21.7258 12.9151 21.7508 12.5071 21.75 12.0833C21.7492 11.6596 21.7242 11.252 21.6751 10.8605C21.6259 10.469 21.5502 10.0711 21.4479 9.66667H17.3396C17.4 10.0694 17.4455 10.4674 17.4761 10.8605C17.5067 11.2536 17.5216 11.6612 17.5208 12.0833C17.52 12.5054 17.5047 12.9135 17.4749 13.3074C17.4451 13.7013 17.4 14.0988 17.3396 14.5ZM16.8563 7.25H20.4208C19.8368 6.24306 19.107 5.36702 18.2313 4.62188C17.3557 3.87674 16.3536 3.32292 15.225 2.96042C15.5875 3.625 15.9049 4.31496 16.1772 5.03029C16.4494 5.74563 16.6758 6.48553 16.8563 7.25ZM9.7875 7.25H14.3792C14.1375 6.36389 13.8253 5.52813 13.4427 4.74271C13.0601 3.95729 12.6069 3.20209 12.0833 2.47709C11.5597 3.20209 11.1066 3.95729 10.724 4.74271C10.3413 5.52813 10.0292 6.36389 9.7875 7.25ZM3.74583 7.25H7.31042C7.49167 6.48472 7.71843 5.74442 7.99071 5.02909C8.26299 4.31375 8.57997 3.6242 8.94167 2.96042C7.81389 3.32292 6.81178 3.87674 5.93533 4.62188C5.05889 5.36702 4.32906 6.24306 3.74583 7.25Z" fill="#7E8793"/>
</svg>
