<svg width="33" height="33" viewBox="0 0 33 33" fill="none" xmlns="http://www.w3.org/2000/svg">
<path d="M22.7647 17.7457L22.1391 18.3686C22.1391 18.3686 20.65 19.8481 16.5868 15.8083C12.5237 11.7686 14.0128 10.2891 14.0128 10.2891L14.4061 9.89585C15.3782 8.9306 15.4703 7.3796 14.622 6.2466L12.8894 3.93247C11.8389 2.52997 9.81083 2.34435 8.6077 3.5406L6.44895 5.6856C5.85358 6.2796 5.45483 7.04685 5.50295 7.89935C5.6267 10.0815 6.61395 14.7743 12.1195 20.2496C17.9591 26.0548 23.4385 26.2858 25.6783 26.0768C26.3878 26.0108 27.0038 25.6506 27.5002 25.1556L29.4527 23.2141C30.7727 21.9037 30.4015 19.6556 28.713 18.7385L26.0867 17.3098C24.9785 16.709 23.631 16.885 22.7647 17.7457Z" fill="#2B2A2A"/>
</svg>
