<svg width="35" height="35" viewBox="0 0 35 35" fill="none" xmlns="http://www.w3.org/2000/svg">
<path d="M30.2899 23.6361V14.2002L18.0695 21.0693C17.6522 21.3186 17.211 21.4433 16.7458 21.4433C16.2818 21.4433 15.8372 21.318 15.412 21.0675L3.72338 14.4483C3.47598 14.2947 3.29357 14.1127 3.17614 13.9024C3.05871 13.692 3 13.4592 3 13.2039C3 12.9487 3.05871 12.7159 3.17614 12.5055C3.29357 12.2951 3.47598 12.1131 3.72338 11.9595L15.4102 5.35808C15.6177 5.23754 15.8315 5.14772 16.0515 5.08863C16.2704 5.02954 16.5002 5 16.7407 5C16.9813 5 17.211 5.03073 17.4299 5.09218C17.6488 5.15363 17.862 5.24758 18.0695 5.37403L31.2664 12.7838C31.5001 12.9067 31.6808 13.084 31.8085 13.3156C31.9362 13.5472 32 13.7966 32 14.0637V23.6361C32 23.8866 31.9179 24.097 31.7537 24.2672C31.5896 24.4374 31.3866 24.5224 31.1449 24.5224C30.9033 24.5224 30.6997 24.4374 30.5344 24.2672C30.3691 24.097 30.2876 23.8866 30.2899 23.6361ZM15.412 29.626L7.91485 25.4176C7.47592 25.16 7.12706 24.8043 6.86826 24.3505C6.60947 23.9002 6.48007 23.4127 6.48007 22.888V17.3786L15.412 22.4006C15.8292 22.6499 16.2704 22.7746 16.7356 22.7746C17.1996 22.7746 17.6442 22.6493 18.0695 22.3988L27.0014 17.3768V22.8916C27.0014 23.4234 26.872 23.9138 26.6132 24.3629C26.3544 24.8096 26.0061 25.1618 25.5683 25.4194L18.0695 29.626C17.8597 29.7501 17.6442 29.8434 17.423 29.906C17.2019 29.9687 16.9744 30 16.7407 30C16.507 30 16.2796 29.9687 16.0584 29.906C15.8372 29.8434 15.6217 29.7501 15.412 29.626Z" fill="#2B2A2A"/>
</svg>
