<svg width="80" height="93" viewBox="0 0 80 93" fill="none" xmlns="http://www.w3.org/2000/svg">
<path d="M20 30C20 24.6957 22.1071 19.6086 25.8579 15.8579C29.6086 12.1071 34.6957 10 40 10C45.3043 10 50.3914 12.1071 54.1421 15.8579C57.8929 19.6086 60 24.6957 60 30V50.0001C60 55.3044 57.8929 60.3915 54.1421 64.1423C50.3914 67.893 45.3043 70.0001 40 70.0001C34.6957 70.0001 29.6086 67.893 25.8579 64.1423C22.1071 60.3915 20 55.3044 20 50.0001V30Z" stroke="#7E8793" stroke-width="3" stroke-linejoin="round"/>
<path d="M40 23.3335V36.6669" stroke="#7E8793" stroke-width="3" stroke-linecap="round" stroke-linejoin="round"/>
<path d="M23 75C23 75 30 81 40.5 81C51 81 57.5 75 57.5 75" stroke="#7E8793" stroke-width="3" stroke-linecap="round"/>
<path d="M26 86.5C26 86.5 30 91 40.5 91C51 91 55 86.5 55 86.5" stroke="#7E8793" stroke-width="3" stroke-linecap="round"/>
</svg>
