<svg width="12" height="12" viewBox="0 0 12 12" fill="none" xmlns="http://www.w3.org/2000/svg">
<path d="M0.25 6H10.75C10.8163 6 10.8799 5.97366 10.9268 5.92678C10.9737 5.87989 11 5.8163 11 5.75V4C11.0001 3.93432 10.9872 3.86927 10.9621 3.80858C10.937 3.74788 10.9002 3.69272 10.8538 3.64625L7.35375 0.14625C7.30728 0.099833 7.25212 0.063026 7.19143 0.037932C7.13073 0.0128379 7.06568 -5.14929e-05 7 1.54599e-07H1C0.734784 1.54599e-07 0.48043 0.105357 0.292893 0.292893C0.105357 0.48043 0 0.734784 0 1V5.75C0 5.8163 0.0263393 5.87989 0.0732234 5.92678C0.120107 5.97366 0.183696 6 0.25 6ZM7 1.25L9.75 4H7V1.25ZM11.75 11.5331C11.7388 11.6616 11.6795 11.7812 11.5838 11.8678C11.4882 11.9544 11.3634 12.0016 11.2344 12H9.5C9.36739 12 9.24021 11.9473 9.14645 11.8536C9.05268 11.7598 9 11.6326 9 11.5V8.01688C8.99841 7.88788 9.04564 7.76305 9.13223 7.66743C9.21882 7.5718 9.33836 7.51244 9.46688 7.50125C9.53527 7.49671 9.60387 7.50628 9.6684 7.52936C9.73294 7.55245 9.79205 7.58856 9.84204 7.63545C9.89204 7.68234 9.93186 7.73901 9.95903 7.80194C9.98621 7.86486 10.0002 7.93271 10 8.00125V11.0013H11.25C11.3184 11.0011 11.3862 11.015 11.449 11.0421C11.5118 11.0692 11.5684 11.1089 11.6153 11.1588C11.6622 11.2086 11.6983 11.2676 11.7215 11.332C11.7447 11.3964 11.7544 11.4648 11.75 11.5331ZM3.23875 10.7694C3.21926 10.9606 3.15765 11.1452 3.05833 11.3097C2.95902 11.4743 2.82448 11.6149 2.66437 11.7212C2.34 11.9375 1.9375 12 1.57125 12C1.25183 11.9983 0.933897 11.9563 0.625 11.875C0.498801 11.838 0.392243 11.7528 0.328405 11.6379C0.264568 11.5229 0.248591 11.3874 0.283934 11.2608C0.319278 11.1341 0.403097 11.0265 0.517236 10.9612C0.631376 10.8959 0.766647 10.8782 0.89375 10.9119C1.1675 10.9869 1.82812 11.0806 2.11562 10.8894C2.17125 10.8525 2.23 10.7944 2.24937 10.6438C2.27125 10.4769 2.205 10.3875 1.45062 10.1694C0.86625 10.0006 -0.111875 9.7175 0.0131249 8.725C0.03258 8.53752 0.09306 8.35662 0.190273 8.19514C0.287486 8.03366 0.419048 7.89555 0.575625 7.79062C1.31562 7.29062 2.49563 7.58375 2.6275 7.61812C2.69103 7.63487 2.75063 7.66396 2.80292 7.70374C2.8552 7.74352 2.89914 7.79321 2.93222 7.84997C2.9653 7.90673 2.98688 7.96945 2.99572 8.03455C3.00456 8.09965 3.00049 8.16585 2.98375 8.22937C2.96701 8.2929 2.93791 8.35251 2.89813 8.40479C2.85835 8.45708 2.80867 8.50101 2.75191 8.53409C2.69515 8.56717 2.63243 8.58875 2.56733 8.59759C2.50223 8.60644 2.43603 8.60237 2.3725 8.58562C2.09187 8.5125 1.42125 8.42562 1.13375 8.62062C1.09606 8.64605 1.06504 8.68016 1.04328 8.72007C1.02153 8.75999 1.00969 8.80455 1.00875 8.85C1.00125 8.90625 1 8.9175 1.07875 8.96875C1.22312 9.06188 1.48125 9.13625 1.73187 9.20875C2.34375 9.38562 3.37875 9.6875 3.23875 10.7694ZM7.67625 10.9712C7.88949 10.5996 8.00115 10.1784 8 9.75C8 8.50937 7.10312 7.5 6 7.5C4.89688 7.5 4 8.50937 4 9.75C4 10.9906 4.89688 12 6 12C6.35318 11.9987 6.69839 11.8949 6.99375 11.7013L7.14625 11.8538C7.19486 11.9023 7.25296 11.9404 7.31693 11.9655C7.3809 11.9906 7.44936 12.0023 7.51804 11.9998C7.58672 11.9972 7.65414 11.9806 7.7161 11.9508C7.77805 11.9211 7.83321 11.8789 7.87813 11.8269C7.96016 11.7277 8.0018 11.6013 7.99473 11.4728C7.98766 11.3444 7.93241 11.2233 7.84 11.1337L7.67625 10.9712ZM6 11C5.44875 11 5 10.4375 5 9.75C5 9.0625 5.44875 8.5 6 8.5C6.55125 8.5 7 9.0625 7 9.75C7.00009 9.90935 6.97521 10.0677 6.92625 10.2194L6.86812 10.1613C6.77584 10.0662 6.65039 10.0104 6.51796 10.0056C6.38554 10.0009 6.25639 10.0474 6.1575 10.1356C6.10866 10.1815 6.06953 10.2367 6.04244 10.298C6.01535 10.3592 6.00085 10.4253 5.99981 10.4923C5.99876 10.5593 6.01118 10.6258 6.03634 10.6879C6.06149 10.75 6.09887 10.8064 6.14625 10.8538L6.25125 10.9581C6.17022 10.9852 6.08543 10.9993 6 11Z" fill="black"/>
</svg>
