<svg width="35" height="35" viewBox="0 0 35 35" fill="none" xmlns="http://www.w3.org/2000/svg">
<path d="M29.1662 24.792C30.0023 24.792 30.7072 25.0837 31.2808 25.667C31.8544 26.2503 32.1364 26.9309 32.1267 27.7087L20.4162 32.0837L10.2079 29.167V16.042H13.0517L23.6537 19.9649C24.4121 20.2663 24.7912 20.8107 24.7912 21.5982C24.7912 22.0552 24.626 22.4538 24.2954 22.7941C23.9648 23.1344 23.5468 23.3142 23.0412 23.3337H18.9579L16.4058 22.3566L15.9246 23.7274L18.9579 24.792H29.1662ZM23.3329 4.71074C24.3635 3.51491 25.676 2.91699 27.2704 2.91699C28.5926 2.91699 29.7107 3.4031 30.6246 4.37533C31.5385 5.34755 32.0246 6.4656 32.0829 7.72949C32.0829 8.73088 31.5968 9.92671 30.6246 11.317C29.6523 12.7073 28.6947 13.8691 27.7517 14.8024C26.8086 15.7357 25.3357 17.1212 23.3329 18.9587C21.3107 17.1212 19.8232 15.7357 18.8704 14.8024C17.9176 13.8691 16.96 12.7073 15.9975 11.317C15.035 9.92671 14.5635 8.73088 14.5829 7.72949C14.5829 6.40727 15.0544 5.28921 15.9975 4.37533C16.9405 3.46144 18.078 2.97533 19.41 2.91699C20.9655 2.91699 22.2732 3.51491 23.3329 4.71074ZM1.43457 16.042H7.29124V32.0837H1.43457V16.042Z" fill="#2B2A2A"/>
</svg>
